<svg width="680" height="680" viewBox="0 0 680 680" xmlns="http://www.w3.org/2000/svg">
<defs>
  <linearGradient id="goldLine" x1="0%" y1="0%" x2="100%" y2="100%">
    <stop offset="0%"   stop-color="#ccff55"/>
    <stop offset="45%"  stop-color="#89E900"/>
    <stop offset="100%" stop-color="#3d7200"/>
  </linearGradient>
  <linearGradient id="plateBg" x1="0%" y1="0%" x2="100%" y2="100%">
    <stop offset="0%"   stop-color="#1c1c1c"/>
    <stop offset="100%" stop-color="#0a0a0a"/>
  </linearGradient>
  <linearGradient id="textGrad" x1="0%" y1="0%" x2="0%" y2="100%">
    <stop offset="0%"   stop-color="#e4ffa0"/>
    <stop offset="38%"  stop-color="#89E900"/>
    <stop offset="100%" stop-color="#2e5a00"/>
  </linearGradient>
</defs>

<circle cx="340" cy="340" r="340" fill="#060606"/>
<circle cx="340" cy="340" r="320" fill="url(#plateBg)"/>

<circle cx="340" cy="340" r="298" fill="none" stroke="#89E900" stroke-width="0.4" opacity="0.10"/>
<circle cx="340" cy="340" r="275" fill="none" stroke="#89E900" stroke-width="0.4" opacity="0.07"/>
<circle cx="340" cy="340" r="252" fill="none" stroke="#89E900" stroke-width="0.4" opacity="0.05"/>

<circle cx="340" cy="340" r="318" fill="none" stroke="url(#goldLine)" stroke-width="4.5"/>
<circle cx="340" cy="340" r="311" fill="none" stroke="#89E900" stroke-width="0.6" opacity="0.2"/>

<line x1="340" y1="22"  x2="340" y2="44"  stroke="#89E900" stroke-width="3"   stroke-linecap="round"/>
<line x1="340" y1="636" x2="340" y2="658" stroke="#89E900" stroke-width="3"   stroke-linecap="round"/>
<line x1="22"  y1="340" x2="44"  y2="340" stroke="#89E900" stroke-width="3"   stroke-linecap="round"/>
<line x1="636" y1="340" x2="658" y2="340" stroke="#89E900" stroke-width="3"   stroke-linecap="round"/>

<line x1="117" y1="117" x2="130" y2="130" stroke="#89E900" stroke-width="1.8" stroke-linecap="round" opacity="0.55"/>
<line x1="563" y1="117" x2="550" y2="130" stroke="#89E900" stroke-width="1.8" stroke-linecap="round" opacity="0.55"/>
<line x1="117" y1="563" x2="130" y2="550" stroke="#89E900" stroke-width="1.8" stroke-linecap="round" opacity="0.55"/>
<line x1="563" y1="563" x2="550" y2="550" stroke="#89E900" stroke-width="1.8" stroke-linecap="round" opacity="0.55"/>

<g stroke="#89E900" stroke-width="1" stroke-linecap="round" opacity="0.28">
  <line x1="219" y1="42"  x2="223" y2="55"/>
  <line x1="461" y1="42"  x2="457" y2="55"/>
  <line x1="219" y1="638" x2="223" y2="625"/>
  <line x1="461" y1="638" x2="457" y2="625"/>
  <line x1="42"  y1="219" x2="55"  y2="223"/>
  <line x1="42"  y1="461" x2="55"  y2="457"/>
  <line x1="638" y1="219" x2="625" y2="223"/>
  <line x1="638" y1="461" x2="625" y2="457"/>
</g>

<polygon points="340,60  349,69  340,78  331,69" fill="#89E900"/>
<polygon points="340,602 349,611 340,620 331,611" fill="#89E900"/>
<polygon points="60,340  69,331  78,340  69,349" fill="#89E900"/>
<polygon points="602,340 611,331 620,340 611,349" fill="#89E900"/>

<line x1="115" y1="115" x2="565" y2="565" stroke="#89E900" stroke-width="0.5" opacity="0.05"/>
<line x1="565" y1="115" x2="115" y2="565" stroke="#89E900" stroke-width="0.5" opacity="0.05"/>

<line x1="128" y1="254" x2="552" y2="254" stroke="#89E900" stroke-width="0.8" opacity="0.18"/>
<line x1="128" y1="452" x2="552" y2="452" stroke="#89E900" stroke-width="0.8" opacity="0.18"/>

<text
  x="340" y="418"
  text-anchor="middle"
  font-family="'Futura','Century Gothic','Gill Sans MT','Trebuchet MS',sans-serif"
  font-weight="700"
  font-size="200"
  letter-spacing="-2"
  fill="url(#textGrad)"
>MRj</text>

<line x1="200" y1="440" x2="480" y2="440" stroke="url(#goldLine)" stroke-width="1.5" opacity="0.75"/>

<circle cx="190" cy="440" r="3.5" fill="#89E900" opacity="0.8"/>
<circle cx="490" cy="440" r="3.5" fill="#89E900" opacity="0.8"/>

<text
  x="340" y="476"
  text-anchor="middle"
  font-family="'Futura','Century Gothic','Trebuchet MS',sans-serif"
  font-weight="600"
  font-size="18"
  letter-spacing="12"
  fill="#89E900"
  opacity="0.4"
>PORTFOLIO</text>

</svg>
